<svg xmlns="http://www.w3.org/2000/svg" viewBox="0 0 212 164" width="212" height="164" fill="none">
<g fill-rule="evenodd" shape-rendering="geometricPrecision">
  <path d="M 45.00 160.00 L 47.00 163.00 L 55.00 163.00 L 55.00 159.00 L 47.00 158.00 Z M 41.00 143.00 L 42.00 147.00 L 50.00 148.00 L 55.00 152.00 L 59.00 152.00 L 62.00 155.00 L 62.00 158.00 L 75.00 157.00 L 75.00 149.00 L 65.00 151.00 L 55.00 144.00 L 52.00 145.00 L 45.00 142.00 Z M 65.00 137.00 L 64.00 144.00 L 76.00 146.00 L 78.00 141.00 L 77.00 138.00 L 72.00 136.00 Z M 48.00 128.00 L 48.00 132.00 L 52.00 133.00 L 57.00 138.00 L 61.00 137.00 L 63.00 134.00 L 62.00 132.00 L 60.00 132.00 L 51.00 126.00 Z M 61.00 118.00 L 61.00 120.00 L 71.00 123.00 L 82.00 130.00 L 85.00 130.00 L 89.00 126.00 L 85.00 122.00 L 80.00 121.00 L 79.00 118.00 L 75.00 118.00 L 71.00 116.00 L 64.00 116.00 Z M 78.00 120.00 L 79.00 122.00 L 76.00 124.00 L 75.00 122.00 Z M 86.00 106.00 L 86.00 110.00 L 88.00 112.00 L 91.00 111.00 L 92.00 116.00 L 98.00 118.00 L 102.00 115.00 L 102.00 113.00 L 97.00 110.00 L 93.00 104.00 Z  M 105.00 99.00 L 107.00 102.00 L 110.00 101.00 L 113.00 107.00 L 117.00 105.00 L 117.00 103.00 L 115.00 101.00 L 112.00 101.00 L 111.00 98.00 Z M 124.00 92.00 L 124.00 96.00 L 127.00 98.00 L 131.00 96.00 L 131.00 93.00 Z M 145.00 83.00 L 143.00 82.00 L 136.00 87.00 L 141.00 89.00 L 145.00 86.00 Z M 69.00 78.00 L 63.00 81.00 L 59.00 81.00 L 54.00 77.00 L 57.00 81.00 L 57.00 86.00 L 56.00 87.00 L 45.00 86.00 L 40.00 91.00 L 47.00 100.00 L 47.00 102.00 L 42.00 108.00 L 43.00 113.00 L 47.00 115.00 L 59.00 107.00 L 59.00 105.00 L 65.00 98.00 L 69.00 98.00 L 72.00 100.00 L 80.00 98.00 L 78.00 94.00 L 72.00 88.00 L 72.00 85.00 L 69.00 82.00 Z  M 161.00 70.00 L 156.00 72.00 L 154.00 75.00 L 157.00 75.00 L 157.00 73.00 L 160.00 72.00 Z M 178.00 53.00 L 178.00 55.00 L 180.00 55.00 L 180.00 53.00 Z M 198.00 41.00 L 197.00 43.00 L 200.00 48.00 L 203.00 48.00 L 204.00 47.00 L 203.00 41.00 L 202.00 40.00 Z M 185.00 37.00 L 179.00 38.00 L 177.00 43.00 L 181.00 45.00 L 186.00 40.00 Z M 201.00 24.00 L 193.00 20.00 L 185.00 24.00 L 183.00 28.00 L 185.00 29.00 L 186.00 32.00 L 188.00 32.00 L 199.00 27.00 Z M 171.00 17.00 L 173.00 22.00 L 176.00 21.00 L 174.00 17.00 Z M 202.00 14.00 L 200.00 16.00 L 201.00 20.00 L 205.00 20.00 L 207.00 15.00 Z" fill="#091e3f" />
  <path d="M 138.00 97.00 L 118.00 109.00 L 112.00 118.00 L 90.00 138.00 L 85.00 149.00 L 86.00 163.00 L 100.00 163.00 L 127.00 122.00 L 136.00 104.00 Z M 75.00 63.00 L 76.00 74.00 L 73.00 88.00 L 82.00 97.00 L 112.00 88.00 L 110.00 84.00 L 100.00 74.00 L 97.00 74.00 L 91.00 79.00 L 79.00 65.00 Z M 118.00 28.00 L 106.00 20.00 L 97.00 16.00 L 83.00 13.00 L 68.00 13.00 L 52.00 17.00 L 42.00 22.00 L 28.00 33.00 L 18.00 47.00 L 13.00 59.00 L 11.00 67.00 L 11.00 88.00 L 16.00 105.00 L 31.00 132.00 L 41.00 120.00 L 40.00 116.00 L 35.00 110.00 L 28.00 96.00 L 25.00 80.00 L 27.00 65.00 L 35.00 49.00 L 46.00 38.00 L 63.00 30.00 L 85.00 29.00 L 95.00 32.00 L 107.00 39.00 L 116.00 48.00 L 120.00 54.00 L 126.00 70.00 L 126.00 82.00 L 128.00 82.00 L 140.00 76.00 L 140.00 66.00 L 137.00 55.00 L 132.00 45.00 L 125.00 35.00 Z" fill="#05ad87" />
  <path d="M 61.00 159.00 L 61.00 163.00 L 75.00 163.00 L 74.00 159.00 L 71.00 158.00 Z M 41.00 148.00 L 44.00 158.00 L 54.00 157.00 L 55.00 153.00 L 50.00 149.00 Z M 62.00 145.00 L 62.00 147.00 L 65.00 150.00 L 72.00 148.00 L 69.00 145.00 Z M 43.00 136.00 L 42.00 141.00 L 52.00 144.00 L 57.00 143.00 L 58.00 139.00 L 55.00 138.00 L 52.00 134.00 L 46.00 132.00 Z M 72.00 126.00 L 73.00 129.00 L 68.00 135.00 L 79.00 137.00 L 82.00 133.00 L 81.00 130.00 Z M 53.00 125.00 L 53.00 127.00 L 63.00 132.00 L 69.00 126.00 L 68.00 123.00 L 62.00 121.00 L 58.00 121.00 Z M 91.00 115.00 L 88.00 116.00 L 84.00 120.00 L 86.00 123.00 L 90.00 124.00 L 94.00 120.00 L 94.00 118.00 Z M 86.00 111.00 L 83.00 108.00 L 70.00 115.00 L 75.00 117.00 L 80.00 117.00 L 84.00 115.00 Z M 94.00 104.00 L 96.00 107.00 L 102.00 104.00 L 103.00 107.00 L 100.00 109.00 L 100.00 111.00 L 105.00 112.00 L 112.00 107.00 L 109.00 103.00 L 105.00 101.00 Z M 70.00 100.00 L 66.00 99.00 L 65.00 101.00 L 62.00 102.00 L 62.00 104.00 Z M 125.00 97.00 L 122.00 95.00 L 119.00 95.00 L 114.00 97.00 L 113.00 100.00 L 115.00 100.00 L 116.00 102.00 L 120.00 102.00 L 125.00 99.00 Z M 39.00 93.00 L 35.00 98.00 L 39.00 101.00 L 38.00 103.00 L 39.00 106.00 L 42.00 107.00 L 46.00 102.00 L 46.00 100.00 Z M 137.00 89.00 L 135.00 88.00 L 129.00 92.00 L 134.00 93.00 L 137.00 91.00 Z M 48.00 82.00 L 48.00 85.00 L 56.00 86.00 L 56.00 81.00 L 54.00 79.00 Z M 153.00 77.00 L 150.00 78.00 L 146.00 82.00 L 149.00 82.00 Z M 75.00 65.00 L 70.00 69.00 L 70.00 71.00 L 65.00 76.00 L 65.00 78.00 L 67.00 77.00 L 70.00 78.00 L 70.00 82.00 L 73.00 82.00 L 74.00 78.00 L 71.00 78.00 L 70.00 76.00 L 73.00 75.00 L 73.00 73.00 L 75.00 72.00 Z M 170.00 44.00 L 179.00 52.00 L 178.00 44.00 Z M 202.00 37.00 L 198.00 29.00 L 195.00 29.00 L 188.00 33.00 L 184.00 33.00 L 183.00 35.00 L 186.00 37.00 L 193.00 36.00 L 196.00 40.00 L 199.00 40.00 Z M 187.00 21.00 L 183.00 18.00 L 181.00 20.00 L 178.00 20.00 L 177.00 23.00 L 180.00 25.00 L 183.00 25.00 Z M 198.00 16.00 L 195.00 20.00 L 201.00 22.00 Z " fill="#0d294d" />
</g>
</svg>
